<svg xmlns="http://www.w3.org/2000/svg" xml:space="preserve" width="256" height="256" viewBox="0 0 67.733 67.733"><g style="fill:#3692bc;fill-opacity:1"><path d="M9.18 70.628v-8.261h.74q7.598 0 7.598-8.34v-16.6q0-14.69 16.6-16.678v8.34q-8.339.662-8.339 8.338v16.6q0 7.249-5.65 12.47 5.65 5.261 5.65 12.47v16.6q0 7.755 8.34 8.34v8.339q-16.6-1.91-16.6-16.678v-16.6q0-8.34-7.6-8.34zm113.829-8.261v8.261h-.74q-7.6 0-7.6 8.34v16.6q0 14.73-16.6 16.678v-8.34q8.34-.7 8.34-8.338v-16.6q0-7.21 5.572-12.47-5.573-5.261-5.573-12.47v-16.6q0-7.716-8.339-8.34V20.75q16.6 1.91 16.6 16.678v16.6q0 8.34 7.6 8.34z" style="font-size:99.7581px;line-height:1.4;font-family:Krungthep;-inkscape-font-specification:Krungthep;letter-spacing:1.74576px;word-spacing:.794947px;fill:#1a1a1a;stroke:#000;stroke-width:3.92749;stroke-opacity:1" transform="matrix(.56171 0 0 .56171 -3.26 -3.268)"/><path d="M339.508 362.81h1.477v1.477h-1.477zm-10.58.362h8.375v.724h-8.376zm-3.723-1.263h1.861v3.08h-1.861zm-2.792 0h1.861v3.08h-1.86zm-2.791 0h1.86v3.08h-1.86zm19.886-10.046h1.477v1.476h-1.477zm-10.58.361h8.375v.724h-8.376zm-3.723-1.263h1.861v3.081h-1.861zm-2.792 0h1.861v3.081h-1.86zm-2.791 0h1.86v3.081h-1.86zm19.886-10.291h1.477v1.476h-1.477zm-10.58.36h8.375v.725h-8.376zm-3.723-1.262h1.861v3.081h-1.861zm-2.792 0h1.861v3.081h-1.86zm-2.791 0h1.86v3.08h-1.86zm-1.817-1.947v7.066l7.116.05 8.912-.037 8.913-.036v-7.043h-12.47zm0 7.066h-.001v.002h.001zm0 3.92v7.19h.001l.003.001h24.937v-7.186h-8.951l-15.99-.003zm0 7.222-.001.002zm.002 3.845-.002.001v7.115h24.941v-7.044l-8.912-.036z" style="fill:#1a1a1a;fill-opacity:1;stroke-width:.23109" transform="matrix(1.1917 0 0 1.19152 -359.691 -385.948)"/><g style="fill:#fff"><path d="M551 208.833V203h7v11.667h-7zM540 208.833V203h7v11.667h-7zM529 208.833V203h7v11.667h-7zM529 253v-6h7v12h-7zM540 253v-6h7v12h-7zM551 253v-6h7v12h-7zM551 296.167v-5.834h7V302h-7zM540 296.167v-5.834h7V302h-7zM529 296.167v-5.834h7V302h-7zM565.667 253.333V252h32.666v2.667h-32.666ZM565.667 209v-1.333h32.666v2.666h-32.666ZM565.667 296.5v-1.167h32.666v2.334h-32.666Z" style="fill:#fff;fill-opacity:1;stroke:#82b7d3;stroke-width:.755906;stroke-dasharray:none;stroke-opacity:1" transform="matrix(.30196 0 0 .30196 -138.46 -42.312)"/></g><g style="fill:#0f0"><path d="M607.333 209.167v-2.834H613V212h-5.667zM607.333 253.333v-2.666H613V256h-5.667zM607.333 296.5v-2.833H613v5.666h-5.667z" style="fill:#0f0;fill-opacity:1;stroke:#bbec6c;stroke-width:.377953;stroke-dasharray:none;stroke-opacity:1" transform="matrix(.30196 0 0 .30196 -138.46 -42.312)"/></g></g></svg>