<svg xmlns="http://www.w3.org/2000/svg" width="256" height="256" viewBox="0 0 67.733 67.733">
  <g transform="matrix(1.949 0 0 1.949 -32.195 -32.199)">
    <!-- Server rack base -->
    <path d="m339.508 362.81h1.477v1.477h-1.477zm-10.58.362h8.375v.724h-8.376zm-3.723-1.263h1.861v3.08h-1.861zm-2.792 0h1.861v3.08h-1.86zm-2.791 0h1.86v3.08h-1.86zm19.886-10.046h1.477v1.476h-1.477zm-10.58.361h8.375v.724h-8.376zm-3.723-1.263h1.861v3.081h-1.861zm-2.792 0h1.861v3.081h-1.86zm-2.791 0h1.86v3.081h-1.86zm19.886-10.291h1.477v1.476h-1.477zm-10.58.36h8.375v.725h-8.376zm-3.723-1.262h1.861v3.081h-1.861zm-2.792 0h1.861v3.081h-1.86zm-2.791 0h1.86v3.08h-1.86zm-1.817-1.947v7.066l7.116.05 8.912-.037 8.913-.036v-7.043h-12.47zm0 7.066h-.001v.002h.001zm0 3.92v7.19h.001l.003.001h24.937v-7.186h-8.951l-15.99-.003zm0 7.222l-.001.002zm.002 3.845l-.002.001v7.115h24.941v-7.044l-8.912-.036z" fill="#1a1a1a" transform="matrix(1.192 0 0 1.192 -359.691 -385.948)"/>

    <!-- White LED indicators (static) -->
    <g fill="none" stroke-width=".756">
      <path d="M551 208.833V203h7v11.667h-7zm-11 0V203h7v11.667h-7zm-11 0V203h7v11.667h-7zM529 253v-6h7v12h-7zm11 0v-6h7v12h-7zm11 0v-6h7v12h-7zm0 43.167v-5.834h7V302h-7zm-11 0v-5.834h7V302h-7zm-11 0v-5.834h7V302h-7zm36.667-42.834V252h32.666v2.667h-32.666zm0-44.333v-1.333h32.666v2.666h-32.666zm0 87.5v-1.167h32.666v2.334h-32.666z" transform="matrix(.302 0 0 .302 -138.46 -42.312)"/>
    </g>

    <!-- Green LED indicators -->
    <g fill="#0f0" stroke="#0f0">
      <!-- Small indicators -->
      <path d="m44.93 20.848v-.856h1.711v1.711h-1.711zm0 13.336v-.805h1.711v1.61h-1.711zm0 13.035v-.855h1.711v1.711h-1.711z" stroke-width=".114"/>

      <!-- Large square indicators -->
      <path d="m43.993 33.911v-1.756h3.512v3.512h-3.512z" stroke-width=".234"/>
      <path d="m43.993 20.828v-1.756h3.512v3.512h-3.512z" stroke-width=".234"/>
      <path d="m43.993 47.244v-1.756h3.512v3.512h-3.512z" stroke-width=".234"/>
    </g>
  </g>
</svg>
