<svg xmlns="http://www.w3.org/2000/svg" xml:space="preserve" width="640" height="320" viewBox="0 0 169.333 84.667"><g style="fill:#3692bc;fill-opacity:1"><g style="fill:#3692bc;fill-opacity:1"><path d="M192.92 335.223c-.003 1.668.017 3.346-.018 5.007-.19 2.81.48 3.806 2.569 3.45 8.496.04 17.929-.08 26.425-.096v-8.867H192.92zm58.957 1.047c-5.134.112-10.28-.056-15.404.294-5.692.84-10.727 5.058-12.578 10.5q.002-1.196.006-2.392h-34.706v8.912l22.745.006c-4.197 4.813-10.079 7.794-16.105 9.643l-2.224.734q2.906 4.162 5.813 8.32c7.457-2.565 14.685-6.53 19.795-12.658 1.407-1.784 2.775-3.613 3.865-5.611.51 5.85 4.559 11.2 10.042 13.294 2.463 1.036 5.163 1.237 7.805 1.154 3.82.01 7.638.048 11.458.048.451-.166 1.224-.004 1.8-.044 2.748.046 5.498.025 8.247.034 2.391-6.59 4.755-13.191 7.2-19.762 2.523 6.553 4.808 13.193 7.257 19.772 3.557-.007 7.114-.01 10.67-.117a13747 13747 0 0 0-11.6-32.096c-3.93.092-7.876-.148-11.797.156-1.402.389-1.513 2.059-1.994 3.186-3.301 8.92-6.523 17.87-9.783 26.806v-7.976c-5.012-.174-10.094.13-15.055-.39-3.114-.887-5.15-4.634-3.88-7.689.84-2.406 3.32-4.077 5.868-3.948 4.354.022 8.711-.073 13.067-.094v-10.088zm45.941.027c-3.19.006-6.381.005-9.572.008v32.203h26.567v-10.074l-16.424-.072c-.02-7.356-.045-14.711-.063-22.067zm18.47.512v9.59c9.325.07 18.65.011 27.976-.024v-10.072h-27.977zm24.058 4.312c.604.51-.7.763-.384.176.048-.141.253-.199.384-.176m-24.059 6.67v9.725h27.977v-10.221c-9.326-.004-18.651-.004-27.977-.012zm24.059 4.524c.604.51-.7.762-.384.175.048-.14.253-.198.384-.175m-24.059 6.544v9.649h27.977v-10.082q-13.989-.035-27.977-.074zm24.059 4.403c.604.51-.7.762-.384.176.048-.141.253-.199.384-.176m-33.342 9.761c-1.033 5.766-3.83 11.261-8.093 15.303-2.797 2.621-6.227 4.45-9.74 5.908-1.205.773-1.25 2.683-.175 3.59 1.743 2.337 3.018 4.916 4.447 7.461 6.514-3.038 11.774-8.17 16.231-13.71 3.105-4.094 5.087-8.9 6.89-13.667.302-1.357-.737-2.79-2.122-2.92l-7.319-2.525zm24.287-.458c-1.834.009-3.668-.012-5.502.006.52 4.503.289 9.16-.89 13.481-.94 3.004-2.638 5.72-5.064 7.688-1.863 1.581-4.111 2.588-6.314 3.596 2.076 2.423 3.901 5.07 5.264 7.961 5.024-2.5 9.651-6.22 12.242-11.289 2.474 4.693 6.568 8.397 11.264 10.798.49.255 1.081.85 1.23-.027 1.43-2.847 3.127-5.566 5.168-8.017-3.39-1.001-6.556-2.87-8.84-5.595a16.8 16.8 0 0 1-3.954-8.491c-.497-2.692-.593-5.437-.536-8.166-.14-1.34-1.557-2.18-2.827-1.97zm-94.209.505v31.577h10.89v-32.082h-10.89zm-37.67.12v31.576h10.89v-21.192h10.64v21.192h10.89v-32.082h-32.42zm53.863 0v31.576h10.891v-21.192h10.64v21.192h10.891v-32.082h-32.422z" style="display:inline;fill:#fff;fill-opacity:1;stroke-width:.231221" transform="matrix(1.04417 0 0 1.04402 -193.845 -343.43)"/></g><g style="display:inline"><path d="M327.451 374.082c.093.683.156 1.273.156 1.862 0 1.893-.125 4.064-.342 6.112-.279 2.637-.992 5.15-2.016 7.26-1.892 3.816-5.119 6.764-9.337 8.563 1.582 1.986 2.357 3.134 3.505 5.337 2.45-1.303 4.436-2.762 6.173-4.437 2.575-2.513 4.126-4.964 5.398-8.594 1.179 3.04 2.357 5.088 4.25 7.29 2.016 2.328 4.219 4.065 7.383 5.772 1.334-2.575 2.14-3.879 3.598-5.771-1.892-.776-3.164-1.49-4.529-2.482-2.823-2.08-5.18-5.243-6.421-8.625-.93-2.606-1.458-6.392-1.458-10.332 0-.838.062-1.334.186-1.955zm-88.852.001v29.046h7.856v-29.046h-3.929zm-37.67.118v29.046h7.856v-21.19h13.676v21.19h7.854v-29.046h-25.458zm53.865 0v29.046h7.855v-21.19h13.676v21.19h7.854v-29.046h-25.458zm53.444.254c-.248 1.489-.652 2.854-1.272 4.405-2.544 6.144-5.553 9.96-10.361 13.217-2.389 1.614-4.22 2.513-7.26 3.63 2.058 2.68 3.072 4.505 4.716 7.545 5.305-2.668 8.717-6.272 11.943-9.654 3.381-3.6 5.956-7.88 8.159-13.745.744-1.985.744-1.985 1.178-2.947z" style="display:inline;fill:#1a1a1a;fill-opacity:1;stroke-width:.231221" transform="matrix(1.04417 0 0 1.04402 -193.845 -343.43)"/><path d="M199.915 370.331c-.047-.063-.46-.651-.918-1.305-.458-.655-.896-1.278-.972-1.385-.934-1.316-2.007-2.872-1.986-2.883.013-.007.235-.077.493-.156 4.238-1.3 8.2-3.163 11.285-5.308 2.868-1.994 5.166-4.27 6.994-6.928.107-.156.194-.288.194-.294s-5.037-.01-11.194-.008l-12.146.002-.953-.002v-5.875h31.664l-.005 2.924-.005 2.923-.072.203c-.237.664-1.046 2.018-2.258 3.781-1.557 2.265-2.948 3.892-4.743 5.552a34 34 0 0 1-3.34 2.741c-2.836 2.058-5.898 3.735-9.506 5.205-.809.33-2.38.93-2.436.93a.6.6 0 0 1-.096-.116zm-5.478-34.096v5.848l7.401.041 9.27-.03 9.27-.03v-5.829h-12.97zm0 5.848h-.001v.002h.001zm145.071 20.728h1.477v1.476h-1.477zm-10.58.36h8.375v.725h-8.376zm-3.723-1.262h1.861v3.08h-1.861zm-2.792 0h1.861v3.08h-1.86zm-2.791 0h1.86v3.08h-1.86zm19.886-10.046h1.477v1.476h-1.477zm-10.58.361h8.375v.724h-8.376zm-3.723-1.263h1.861v3.081h-1.861zm-2.792 0h1.861v3.081h-1.86zm-2.791 0h1.86v3.081h-1.86zm19.886-10.291h1.477v1.476h-1.477zm-10.58.36h8.375v.725h-8.376zm-3.723-1.262h1.861v3.081h-1.861zm-2.792 0h1.861v3.081h-1.86zm-2.791 0h1.86v3.08h-1.86zm-68.75-1.968-7.01.057c-6.589.054-7.079.075-8.138.356-5.846 1.547-9.815 5.724-10.997 11.571-.323 1.597-.22 4.664.212 6.285.64 2.4 2.39 5.34 4.125 6.93 2.266 2.074 5.195 3.455 8.133 3.835.507.066 3.792.128 7.299.138l6.376.017v-7.021l-6.517-.062c-5.253-.049-6.654-.102-7.222-.272-4.68-1.405-6.891-6.38-4.735-10.653.835-1.654 2.55-3.117 4.362-3.72.903-.3 1.174-.313 7.524-.363l6.588-.052v-3.523zm38.891.022v29.167h23.533v-7.043l-8.208-.036-8.209-.037-.036-11.026-.036-11.026h-3.522zm28.042-.001v7.066l7.116.05 8.912-.037 8.913-.036v-7.043h-12.47zm0 7.066h-.001v.002h.001zm-48.143-7.063c-5.235-.003-5.235-.003-5.374.385-.356.995-10.305 28.317-10.39 28.534-.091.232.14.247 3.687.245l3.785-.003 3.863-10.672c2.125-5.87 3.952-10.85 4.06-11.068.114-.231.288-.378.418-.352.155.03 1.254 2.883 3.654 9.485 1.888 5.193 3.694 10.154 4.013 11.026l.58 1.586h3.718c2.046 0 3.72-.048 3.722-.106s-2.36-6.62-5.249-14.582l-5.252-14.476zm48.143 10.984v7.189h.001l.003.001h24.937v-7.186h-8.951zm0 7.22-.001.003zm.002 3.846-.002.001v7.115h24.941v-7.044l-8.912-.036z" style="fill:#1a1a1a;fill-opacity:1;stroke-width:.23109" transform="matrix(1.04417 0 0 1.04402 -193.845 -343.43)"/></g><path d="M339.376 352.585v-.956h1.912v1.912h-1.912zM339.376 341.334v-.956h1.912v1.912h-1.912zM339.376 363.563v-.955h1.912v1.911h-1.912z" style="fill:#6f0;fill-opacity:1;stroke:#6f0;stroke-width:.41283" transform="matrix(1.04417 0 0 1.04402 -193.902 -343.373)"/></g></svg>