<?xml version="1.0" encoding="UTF-8" standalone="no"?>
<svg
   xml:space="preserve"
   width="256"
   height="256"
   viewBox="0 0 67.733 67.733"
   version="1.1"
   id="svg5"
   sodipodi:docname="favicon.svg"
   inkscape:version="1.4 (e7c3feb1, 2024-10-09)"
   xmlns:inkscape="http://www.inkscape.org/namespaces/inkscape"
   xmlns:sodipodi="http://sodipodi.sourceforge.net/DTD/sodipodi-0.dtd"
   xmlns="http://www.w3.org/2000/svg"
   xmlns:svg="http://www.w3.org/2000/svg"><defs
     id="defs5" /><sodipodi:namedview
     id="namedview5"
     pagecolor="#ffffff"
     bordercolor="#000000"
     borderopacity="0.25"
     inkscape:showpageshadow="2"
     inkscape:pageopacity="0.0"
     inkscape:pagecheckerboard="0"
     inkscape:deskcolor="#d1d1d1"
     inkscape:zoom="1.4990664"
     inkscape:cx="152.09467"
     inkscape:cy="97.393953"
     inkscape:window-width="1864"
     inkscape:window-height="1027"
     inkscape:window-x="59"
     inkscape:window-y="25"
     inkscape:window-maximized="1"
     inkscape:current-layer="g4" /><g
     style="fill:#3692bc;fill-opacity:1"
     id="g5"
     transform="matrix(1.9488456,0,0,1.9488456,-32.194911,-32.198713)"><path
       d="m 339.508,362.81 h 1.477 v 1.477 h -1.477 z m -10.58,0.362 h 8.375 v 0.724 h -8.376 z m -3.723,-1.263 h 1.861 v 3.08 h -1.861 z m -2.792,0 h 1.861 v 3.08 h -1.86 z m -2.791,0 h 1.86 v 3.08 h -1.86 z m 19.886,-10.046 h 1.477 v 1.476 h -1.477 z m -10.58,0.361 h 8.375 v 0.724 h -8.376 z m -3.723,-1.263 h 1.861 v 3.081 h -1.861 z m -2.792,0 h 1.861 v 3.081 h -1.86 z m -2.791,0 h 1.86 v 3.081 h -1.86 z m 19.886,-10.291 h 1.477 v 1.476 h -1.477 z m -10.58,0.36 h 8.375 v 0.725 h -8.376 z m -3.723,-1.262 h 1.861 v 3.081 h -1.861 z m -2.792,0 h 1.861 v 3.081 h -1.86 z m -2.791,0 h 1.86 v 3.08 h -1.86 z m -1.817,-1.947 v 7.066 l 7.116,0.05 8.912,-0.037 8.913,-0.036 v -7.043 h -12.47 z m 0,7.066 h -0.001 v 0.002 h 0.001 z m 0,3.92 v 7.19 h 10e-4 l 0.003,10e-4 h 24.937 v -7.186 h -8.951 l -15.99,-0.003 z m 0,7.222 -0.001,0.002 z m 0.002,3.845 -0.002,10e-4 v 7.115 h 24.941 v -7.044 l -8.912,-0.036 z"
       style="fill:#1a1a1a;fill-opacity:1;stroke-width:0.23109"
       transform="matrix(1.1917,0,0,1.19152,-359.691,-385.948)"
       id="path2" /><g
       style="fill:#ffffff"
       id="g3"><path
         d="M 551,208.833 V 203 h 7 v 11.667 h -7 z m -11,0 V 203 h 7 v 11.667 h -7 z m -11,0 V 203 h 7 v 11.667 h -7 z M 529,253 v -6 h 7 v 12 h -7 z m 11,0 v -6 h 7 v 12 h -7 z m 11,0 v -6 h 7 v 12 h -7 z m 0,43.167 v -5.834 h 7 V 302 h -7 z m -11,0 v -5.834 h 7 V 302 h -7 z m -11,0 v -5.834 h 7 V 302 h -7 z m 36.667,-42.834 V 252 h 32.666 v 2.667 h -32.666 z m 0,-44.333 v -1.333 h 32.666 v 2.666 h -32.666 z m 0,87.5 v -1.167 h 32.666 v 2.334 h -32.666 z"
         style="fill:none;fill-opacity:1;stroke:none;stroke-width:0.755906;stroke-dasharray:none;stroke-opacity:1"
         transform="matrix(0.30196,0,0,0.30196,-138.46,-42.312)"
         id="path3" /></g><g
       style="fill:#00ff00"
       id="g4"><path
         d="m 44.930273,20.84807 v -0.855757 h 1.711213 v 1.711213 h -1.711213 z m 0,13.336408 V 33.37945 h 1.711213 v 1.610358 h -1.711213 z m 0,13.034748 v -0.855455 h 1.711213 v 1.710911 h -1.711213 z"
         style="fill:#00ff00;fill-opacity:1;stroke:#00ff00;stroke-width:0.114127;stroke-dasharray:none;stroke-opacity:1"
         id="path4"
         sodipodi:nodetypes="cccccccccccccccccc" /><path
         d="m 43.993452,33.910969 v -1.756446 h 3.512274 v 3.512274 h -3.512274 z"
         style="fill:#00ff00;fill-opacity:1;stroke:#00ff00;stroke-width:0.234246;stroke-dasharray:none;stroke-opacity:1"
         id="path1-1" /><path
         d="m 43.993452,20.827923 v -1.756446 h 3.512274 v 3.512274 h -3.512274 z"
         style="fill:#00ff00;fill-opacity:1;stroke:#00ff00;stroke-width:0.234246;stroke-dasharray:none;stroke-opacity:1"
         id="path1-1-9" /><path
         d="M 43.993452,47.243966 V 45.48752 h 3.512274 v 3.512274 h -3.512274 z"
         style="fill:#00ff00;fill-opacity:1;stroke:#00ff00;stroke-width:0.234246;stroke-dasharray:none;stroke-opacity:1"
         id="path1-3" /></g></g></svg>
