<svg xmlns="http://www.w3.org/2000/svg" xml:space="preserve" width="970.676" height="119.379" viewBox="0 0 256.824 31.585"><g style="fill:#3692bc;fill-opacity:1"><path d="M473.083 338.293c.09.662.15 1.234.15 1.806 0 1.835-.12 3.941-.33 5.927-.272 2.558-.963 4.996-1.956 7.042-1.835 3.7-4.964 6.56-9.056 8.305 1.534 1.925 2.287 3.039 3.4 5.175 2.376-1.264 4.302-2.678 5.987-4.303 2.497-2.437 4.001-4.814 5.235-8.335 1.143 2.95 2.286 4.935 4.121 7.071 1.956 2.257 4.092 3.942 7.161 5.597 1.294-2.497 2.076-3.761 3.49-5.597-1.835-.752-3.069-1.444-4.393-2.407-2.738-2.016-5.024-5.085-6.228-8.365-.902-2.527-1.414-6.199-1.414-10.02 0-.812.06-1.294.18-1.896zm-86.174 0v28.171h7.62v-28.17h-3.81zm-36.533.116v28.17h7.619v-20.551h13.262v20.551h7.619v-28.17h-24.691zm52.24 0v28.17h7.619v-20.551h13.262v20.551h7.619v-28.17h-24.691zm51.832.245c-.24 1.445-.631 2.769-1.233 4.273-2.467 5.958-5.385 9.659-10.048 12.819-2.317 1.564-4.092 2.437-7.04 3.52 1.995 2.598 2.978 4.369 4.572 7.317 5.145-2.587 8.454-6.083 11.583-9.363 3.28-3.49 5.777-7.643 7.913-13.33.722-1.926.722-1.926 1.143-2.858z" style="display:inline;fill:#fff;fill-opacity:1;stroke-width:.224249" transform="matrix(.82459 0 0 .82447 -151.635 -275.527)"/><path d="M195.385 369.824c-.016-.075-.445-.632-.89-1.267l-.942-1.343c-.906-1.276-1.947-2.785-1.927-2.796.013-.007.228-.074.478-.151 4.11-1.26 7.953-3.067 10.945-5.148 2.782-1.934 5.01-4.14 6.783-6.72.104-.15.189-.279.189-.285s-4.886-.01-10.857-.008l-11.78.002-.924-.002v-5.696h30.709l-.005 2.834-.005 2.835-.07.198c-.23.644-1.014 1.957-2.19 3.667-1.51 2.196-2.858 3.775-4.6 5.384a33 33 0 0 1-3.24 2.659c-2.749 1.995-5.719 3.622-9.218 5.048-.784.32-2.31.901-2.363.901a.16.16 0 0 1-.093-.112m-5.313-33.068v5.67l7.179.041 8.99-.03 8.99-.028v-5.653h-12.58zm0 5.67v.003zM339.53 362.53h1.432v1.431h-1.432zm-10.262.35h8.123v.702h-8.123zm-3.61-1.225h1.805v2.988h-1.805zm-2.707 0h1.805v2.988h-1.805zm-2.708 0h1.805v2.988h-1.805zm19.287-9.742h1.432v1.431h-1.432zm-10.262.35h8.123v.702h-8.123zm-3.61-1.225h1.805v2.988h-1.805zm-2.707 0h1.805v2.988h-1.805zm-2.708 0h1.805v2.988h-1.805zm19.287-9.981h1.432v1.431h-1.432zm-10.262.35h8.123v.702h-8.123zm-3.61-1.225h1.805v2.988h-1.805zm-2.707 0h1.805v2.988h-1.805zm-2.708 0h1.805v2.988h-1.805zm-72.308-1.909-6.8.056c-6.39.052-6.864.072-7.892.344-5.669 1.501-9.519 5.552-10.665 11.223-.313 1.549-.213 4.523.206 6.095.62 2.329 2.317 5.18 4 6.72 2.197 2.013 5.038 3.353 7.888 3.721.492.064 3.677.124 7.079.133l6.184.017v-6.809l-6.321-.06c-5.094-.048-6.453-.1-7.004-.265-4.539-1.362-6.684-6.187-4.592-10.33.81-1.605 2.473-3.024 4.23-3.608.876-.292 1.139-.305 7.298-.353l6.389-.05v-3.417zm41.473.021v28.289h22.823v-6.831l-7.961-.036-7.96-.035-.036-10.694-.035-10.694h-3.416zm29.073 0v6.852l6.902.049 8.643-.036 8.644-.035v-6.831h-12.094zm0 6.852v.002zm-49.82-6.85c-5.077-.003-5.077-.003-5.212.374-.345.965-9.994 27.464-10.077 27.674-.088.224.136.239 3.577.237l3.67-.003 3.747-10.35c2.06-5.692 3.832-10.523 3.937-10.734.11-.225.28-.367.405-.342.151.03 1.217 2.797 3.545 9.2 1.83 5.035 3.582 9.848 3.891 10.693l.563 1.538h3.606c1.984 0 3.608-.046 3.61-.103s-2.29-6.42-5.091-14.142l-5.093-14.04zm49.82 10.653v6.972h.001l.004.002h24.185v-6.97h-8.682zm0 7.003v.002zm.002 3.73h-.002v6.901h24.19v-6.831l-8.644-.036z" style="fill:#fff;fill-opacity:1;stroke-width:.224122" transform="matrix(.82459 0 0 .82447 -151.635 -275.527)"/><g style="fill:#3692bc;fill-opacity:1"><path d="M339.376 352.585v-.956h1.912v1.912h-1.912zm0-11.251v-.956h1.912v1.912h-1.912zm0 22.229v-.955h1.912v1.911h-1.912z" style="fill:#6f0;fill-opacity:1;stroke:#6f0;stroke-width:.41283" transform="matrix(.79972 0 0 .7996 -143.219 -266.695)"/></g></g></svg>
