<svg baseProfile="tiny" xmlns="http://www.w3.org/2000/svg" xml:space="preserve" width="640" height="640" viewBox="0 0 169.333 169.333"><title>ScaleNinja Software</title><path d="M0 0h169.333v169.333H0z" style="fill:#fff;fill-opacity:1;stroke:none;stroke-width:1.30189"/><g style="fill:#3692bc;fill-opacity:1"><path d="M327.451 404.493c.093.683.156 1.273.156 1.862 0 1.893-.125 4.064-.342 6.112-.279 2.637-.992 5.15-2.016 7.26-1.892 3.816-5.119 6.764-9.337 8.563 1.582 1.986 2.357 3.134 3.505 5.337 2.45-1.303 4.436-2.762 6.173-4.437 2.575-2.513 4.126-4.964 5.398-8.594 1.179 3.04 2.357 5.088 4.25 7.29 2.016 2.328 4.219 4.065 7.383 5.772 1.334-2.575 2.14-3.879 3.598-5.771-1.892-.776-3.164-1.49-4.529-2.482-2.823-2.08-5.18-5.243-6.421-8.625-.93-2.606-1.458-6.392-1.458-10.332 0-.838.062-1.334.186-1.955zm-88.852.001v29.046h7.856v-29.046h-3.929zm-37.67.118v29.046h7.856v-21.19h13.676v21.19h7.854v-29.046h-25.458zm53.865 0v29.046h7.855v-21.19h13.676v21.19h7.854v-29.046h-25.458zm53.444.254c-.248 1.489-.652 2.854-1.272 4.405-2.544 6.144-5.553 9.96-10.361 13.217-2.389 1.614-4.22 2.513-7.26 3.63 2.058 2.68 3.072 4.505 4.716 7.545 5.305-2.668 8.717-6.272 11.943-9.654 3.381-3.6 5.956-7.88 8.159-13.745.744-1.985.744-1.985 1.178-2.947z" style="display:inline;fill:#1a1a1a;fill-opacity:1;stroke-width:.231221" transform="matrix(1.04417 0 0 1.04402 -195.433 -333.104)"/><path d="M199.915 400.742c-.047-.063-.46-.651-.918-1.305-.458-.655-.896-1.278-.972-1.385-.934-1.316-2.007-2.872-1.986-2.883.013-.007.235-.077.493-.156 4.238-1.3 8.2-3.163 11.285-5.308 2.868-1.994 5.166-4.27 6.994-6.928.107-.156.194-.288.194-.294s-5.037-.01-11.194-.008l-12.146.002-.953-.002V376.6h31.664l-.005 2.924-.005 2.923-.072.203c-.237.664-1.046 2.018-2.258 3.781-1.557 2.265-2.948 3.892-4.743 5.552a34 34 0 0 1-3.34 2.741c-2.836 2.058-5.898 3.735-9.506 5.205-.809.33-2.38.93-2.436.93a.6.6 0 0 1-.096-.116zm-5.478-34.096v5.848l7.401.041 9.27-.03 9.27-.03v-5.829h-12.97zm0 5.848h-.001v.002h.001zm145.071 20.728h1.477v1.476h-1.477zm-10.58.36h8.375v.725h-8.376zm-3.723-1.262h1.861v3.08h-1.861zm-2.792 0h1.861v3.08h-1.86zm-2.791 0h1.86v3.08h-1.86zm19.886-10.046h1.477v1.476h-1.477zm-10.58.361h8.375v.724h-8.376zm-3.723-1.263h1.861v3.081h-1.861zm-2.792 0h1.861v3.081h-1.86zm-2.791 0h1.86v3.081h-1.86zm19.886-10.291h1.477v1.476h-1.477zm-10.58.36h8.375v.725h-8.376zm-3.723-1.262h1.861v3.081h-1.861zm-2.792 0h1.861v3.081h-1.86zm-2.791 0h1.86v3.08h-1.86zm-68.75-1.968-7.01.057c-6.589.054-7.079.075-8.138.356-5.846 1.547-9.815 5.724-10.997 11.571-.323 1.597-.22 4.664.212 6.285.64 2.4 2.39 5.34 4.125 6.93 2.266 2.074 5.195 3.455 8.133 3.835.507.066 3.792.128 7.299.138l6.376.017v-7.021l-6.517-.062c-5.253-.049-6.654-.102-7.222-.272-4.68-1.405-6.891-6.38-4.735-10.653.835-1.654 2.55-3.117 4.362-3.72.903-.3 1.174-.313 7.524-.363l6.588-.052v-3.523zm38.891.022V397.4h23.533v-7.043l-8.208-.036-8.209-.037-.036-11.026-.036-11.026h-3.522zm28.042-.001v7.066l7.116.05 8.912-.037 8.913-.036v-7.043h-12.47zm0 7.066h-.001v.002h.001zm-48.143-7.063c-5.235-.003-5.235-.003-5.374.385-.356.995-10.305 28.317-10.39 28.534-.091.232.14.247 3.687.245l3.785-.003 3.863-10.672c2.125-5.87 3.952-10.85 4.06-11.068.114-.231.288-.378.418-.352.155.03 1.254 2.883 3.654 9.485 1.888 5.193 3.694 10.154 4.013 11.026l.58 1.586h3.718c2.046 0 3.72-.048 3.722-.106s-2.36-6.62-5.249-14.582l-5.252-14.476zm48.143 10.984v7.189h.001l.003.001h24.937v-7.186h-8.951zm0 7.22-.001.003zm.002 3.846-.002.001v7.115h24.941v-7.044l-8.912-.036z" style="fill:#1a1a1a;fill-opacity:1;stroke-width:.23109" transform="matrix(1.04417 0 0 1.04402 -195.433 -333.104)"/><path d="M339.376 352.585v-.956h1.912v1.912h-1.912zM339.376 341.334v-.956h1.912v1.912h-1.912zM339.376 363.563v-.955h1.912v1.911h-1.912z" style="fill:#6f0;fill-opacity:1;stroke:#6f0;stroke-width:.41283" transform="matrix(1.04417 0 0 1.04402 -195.49 -301.297)"/></g></svg>
