<?xml version="1.0" encoding="UTF-8" standalone="no"?>
<!-- Created with Inkscape (http://www.inkscape.org/) -->

<svg
   width="640"
   height="640"
   viewBox="0 0 169.33334 169.33333"
   version="1.1"
   id="svg1"
   xml:space="preserve"
   sodipodi:docname="sn-block-server-on-white.svg"
   inkscape:version="1.4 (e7c3feb1, 2024-10-09)"
   inkscape:export-filename="/Volumes/MiniExternal/Documents/Drive/sn-newsq2.png"
   inkscape:export-xdpi="162"
   inkscape:export-ydpi="162"
   xmlns:inkscape="http://www.inkscape.org/namespaces/inkscape"
   xmlns:sodipodi="http://sodipodi.sourceforge.net/DTD/sodipodi-0.dtd"
   xmlns="http://www.w3.org/2000/svg"
   xmlns:svg="http://www.w3.org/2000/svg"><sodipodi:namedview
     id="namedview1"
     pagecolor="#ffffff"
     bordercolor="#000000"
     borderopacity="0.25"
     inkscape:showpageshadow="2"
     inkscape:pageopacity="0.0"
     inkscape:pagecheckerboard="0"
     inkscape:deskcolor="#d1d1d1"
     inkscape:document-units="mm"
     inkscape:zoom="1"
     inkscape:cx="302"
     inkscape:cy="172"
     inkscape:window-width="1824"
     inkscape:window-height="1027"
     inkscape:window-x="62"
     inkscape:window-y="25"
     inkscape:window-maximized="0"
     inkscape:current-layer="g3"
     inkscape:export-bgcolor="#00000000" /><defs
     id="defs1" /><g
     inkscape:label="Layer 1"
     inkscape:groupmode="layer"
     id="layer1"
     transform="translate(-190.06871,-251.38465)"><ellipse
       style="fill:#00ff00;fill-opacity:0;stroke-width:0.264583"
       id="path1"
       cx="591.86224"
       cy="105.1854"
       rx="0.1696047"
       ry="59.022434" /><g
       id="g3"
       transform="matrix(1.0333333,0,0,1.0333333,-5.1008953,-46.80055)"><g
         id="g2"
         transform="matrix(0.99931706,0,0,0.99931706,-3.0412156,0.23245811)" /><path
         id="path28"
         style="fill:#3696bc;fill-opacity:1;stroke-width:0.66499"
         d="m 254.22386,370.61014 v 18.20876 18.20881 h 4.3972 4.39678 l 0.0461,-13.76662 0.0457,-13.76656 h 7.56498 7.56497 l 0.0458,13.76656 0.0458,13.76662 h 4.39724 4.39724 V 388.8189 370.61014 H 270.676 Z m 46.87454,0 -0.0607,9.896 c -0.0592,9.64695 -0.0704,9.92533 -0.44786,11.05236 -0.78585,2.34638 -2.69072,4.55427 -4.83945,5.60944 -1.10146,0.54101 -2.17214,0.80325 -4.0417,0.98842 l -1.01131,0.10017 v 4.38556 4.38562 h 0.752 c 2.6287,0 5.64084,-0.71363 8.13228,-1.92633 4.81117,-2.34173 8.27425,-6.58082 9.71194,-11.8884 0.47544,-1.75492 0.47549,-1.75494 0.53886,-12.17891 l 0.0634,-10.42393 h -4.39859 z m 26.87925,0.003 c -6.5364,-0.003 -6.53641,-0.003 -6.70963,0.48063 -0.44474,1.24243 -12.86665,35.35539 -12.97279,35.62582 v 3.4e-4 c -0.1133,0.28869 0.17473,0.30756 4.60413,0.30487 l 4.72493,-0.003 4.82333,-13.32365 c 2.65294,-7.32792 4.93366,-13.54615 5.06843,-13.81831 0.14306,-0.28927 0.35971,-0.47193 0.52203,-0.43977 0.19372,0.0393 1.56623,3.60001 4.56296,11.84237 2.35725,6.4828 4.61154,12.67773 5.00954,13.76631 l 0.72393,1.97936 h 4.64306 c 2.55363,0 4.64423,-0.0594 4.64625,-0.13204 0.002,-0.0725 -2.94708,-8.2649 -6.5533,-18.20529 l -6.5568,-18.07357 z"
         sodipodi:nodetypes="cccccccccccccccccccssscccssssccccccccccsssccssccc" /><path
         id="path31"
         style="fill:#3696bc;fill-opacity:1;stroke-width:0.558138"
         d="m 251.14465,333.97652 -7.34677,0.0601 c -6.90474,0.0564 -7.41788,0.0787 -8.52819,0.37265 -6.12595,1.6217 -10.28587,5.99913 -11.52492,12.12716 -0.33837,1.67348 -0.22975,4.88756 0.22267,6.58591 0.67031,2.5163 2.50424,5.59737 4.32263,7.26227 2.37438,2.17394 5.44409,3.62181 8.52356,4.02009 0.53158,0.0687 3.97354,0.13336 7.64878,0.14363 l 6.68224,0.0188 v -3.67914 -3.67946 l -6.82991,-0.0643 c -5.50442,-0.0518 -6.97324,-0.10724 -7.5683,-0.28583 -4.90469,-1.47212 -7.22223,-6.68621 -4.96208,-11.16353 0.87511,-1.73358 2.67248,-3.26648 4.57097,-3.89837 0.94664,-0.31508 1.23052,-0.32887 7.88556,-0.381 l 6.90376,-0.0539 v -3.69244 z m -32.34061,0.022 -7.93747,9.4e-4 c -4.83469,4.6e-4 -8.31129,0.0616 -8.89363,0.15603 -4.37176,0.7093 -7.64555,4.36429 -7.92826,8.85094 -0.10344,1.64168 0.20553,3.09829 1.00229,4.72556 0.82341,1.6817 2.51535,3.39818 4.12421,4.18392 1.88169,0.91898 2.43743,1.00842 6.78521,1.09197 4.29076,0.0824 4.51154,0.12522 5.02698,0.97056 0.59028,0.9681 0.22489,2.31947 -0.77471,2.86521 -0.44808,0.24464 -1.10737,0.26899 -8.35022,0.30862 l -7.86365,0.0429 v 3.69445 3.69474 l 8.45433,-0.0507 c 8.36294,-0.0499 8.46553,-0.054 9.48808,-0.39081 3.26841,-1.07648 5.68127,-3.59758 6.49448,-6.78551 0.30442,-1.19339 0.30857,-3.42747 0.008,-4.58714 -0.69708,-2.69012 -2.48231,-4.94425 -4.85651,-6.13221 -1.8276,-0.91444 -2.39733,-1.00637 -6.66668,-1.07496 -2.23413,-0.0359 -4.01047,-0.12809 -4.24851,-0.22065 -0.55371,-0.21531 -1.10917,-0.90602 -1.22495,-1.52318 -0.12691,-0.6765 0.36017,-1.68237 1.00315,-2.07119 0.46296,-0.27996 0.8136,-0.29392 8.42061,-0.33399 l 7.93747,-0.0418 v -3.68695 z m 73.09865,0 v 15.28426 15.28426 h 12.33079 12.3308 v -3.69069 -3.69069 l -8.60202,-0.0381 -8.60202,-0.0381 -0.0378,-11.55549 -0.0378,-11.5555 h -3.69099 z m 29.38715,0 v 7.40505 l 7.45755,0.0524 9.34038,-0.0381 9.34038,-0.0381 v -3.69069 -3.6907 H 334.359 Z m 0,7.40505 h -9.4e-4 v 0.002 h 9.4e-4 3e-4 z m -50.45319,-7.40215 c -5.48641,-0.003 -5.48643,-0.003 -5.63179,0.4035 -0.37328,1.04266 -10.8001,29.67678 -10.88925,29.904 v 2.9e-4 c -0.095,0.24227 0.14664,0.25807 3.86462,0.25583 l 3.96615,-0.003 4.04893,-11.18372 c 2.22681,-6.15106 4.141,-11.37064 4.25397,-11.59905 0.12009,-0.24277 0.3023,-0.39615 0.43843,-0.36918 0.16283,0.0323 1.31459,3.02165 3.83001,9.94031 1.97846,5.44179 3.87071,10.64176 4.20496,11.55549 l 0.60771,1.66133 h 3.89721 c 2.14349,0 3.89842,-0.0498 3.90009,-0.11075 0.002,-0.0609 -2.47376,-6.93771 -5.50086,-15.28167 l -5.50375,-15.17063 z m 50.45349,11.51107 c -1.1e-4,3e-5 -1.8e-4,2.5e-4 -3e-4,2.8e-4 v 3.77002 3.76368 c 4.1e-4,2.9e-4 4.7e-4,4.5e-4 9.5e-4,4.5e-4 1.6e-4,1.4e-4 4.6e-4,2.2e-4 4.6e-4,3e-4 4.5e-4,3.2e-4 0.002,4.6e-4 0.003,9.4e-4 h 16.75265 9.38134 v -3.76568 -3.76569 h -9.38142 l -16.75667,-0.003 z m -9.5e-4,7.56772 c -8e-5,4.6e-4 -2e-4,9.5e-4 -2.9e-4,0.002 1.9e-4,0 4.6e-4,-10e-6 4.6e-4,0 v -0.002 z m 0.003,4.03017 c -4.5e-4,3.4e-4 -9.4e-4,4.7e-4 -0.002,9.5e-4 v 7.45609 h 13.06914 13.06916 v -3.69099 -3.69069 l -9.34038,-0.0381 z" /><path
         d="m 193.99479,370.61014 v 18.20876 18.20881 h 4.39724 4.39684 l 0.0453,-13.76662 0.0448,-13.76656 h 7.56529 7.56489 l 0.0457,13.76656 0.0457,13.76662 h 4.39718 4.39725 V 388.8189 370.61014 h -16.44964 z"
         style="fill:#3696bc;fill-opacity:1;stroke-width:0.66499"
         id="path1-8"
         sodipodi:nodetypes="ccccccccccccccccc" /><path
         d="m 236.38408,370.61014 v 18.20876 18.20881 h 4.39822 4.39827 V 388.8189 370.61014 h -4.39827 z"
         style="fill:#3696bc;fill-opacity:1;stroke-width:0.66499"
         id="path1-3" /><g
         id="g1"
         sodipodi:insensitive="true"><rect
           style="fill:#82b7d3;fill-opacity:1;stroke-width:0.0424365"
           id="rect2"
           width="1.8877844"
           height="3.1986613"
           x="323.78"
           y="336.21594" /><rect
           style="fill:#82b7d3;fill-opacity:1;stroke-width:0.0424365"
           id="rect2-99"
           width="1.8877844"
           height="3.1986613"
           x="326.61163"
           y="336.21609" /><rect
           style="fill:#82b7d3;fill-opacity:1;stroke-width:0.0424365"
           id="rect2-99-3"
           width="1.8877844"
           height="3.1986613"
           x="329.44333"
           y="336.21609" /><rect
           style="fill:#82b7d3;fill-opacity:1;stroke-width:0.0436399"
           id="rect2-99-3-9"
           width="8.4950294"
           height="0.75170791"
           x="333.2189"
           y="337.5271" /><rect
           style="fill:#bbec6c;fill-opacity:1;stroke-width:0.0244508"
           id="rect2-99-3-8"
           width="1.4158382"
           height="1.4158382"
           x="343.95142"
           y="337.1525" /><rect
           style="fill:#82b7d3;fill-opacity:1;stroke-width:0.0424365"
           id="rect2-6"
           width="1.8877844"
           height="3.1986613"
           x="323.78"
           y="347.72693" /><rect
           style="fill:#82b7d3;fill-opacity:1;stroke-width:0.0424365"
           id="rect2-99-7"
           width="1.8877844"
           height="3.1986613"
           x="326.61163"
           y="347.72708" /><rect
           style="fill:#82b7d3;fill-opacity:1;stroke-width:0.0424365"
           id="rect2-99-3-1"
           width="1.8877844"
           height="3.1986613"
           x="329.44333"
           y="347.72708" /><rect
           style="fill:#82b7d3;fill-opacity:1;stroke-width:0.0436399"
           id="rect2-99-3-9-8"
           width="8.4950294"
           height="0.75170791"
           x="333.2189"
           y="349.03802" /><rect
           style="fill:#bbec6c;fill-opacity:1;stroke-width:0.0244508"
           id="rect2-99-3-8-4"
           width="1.4158382"
           height="1.4158382"
           x="343.95142"
           y="348.66345" /><rect
           style="fill:#82b7d3;fill-opacity:1;stroke-width:0.0424365"
           id="rect2-3"
           width="1.8877844"
           height="3.1986613"
           x="323.78"
           y="359.27728" /><rect
           style="fill:#82b7d3;fill-opacity:1;stroke-width:0.0424365"
           id="rect2-99-74"
           width="1.8877844"
           height="3.1986613"
           x="326.61163"
           y="359.2774" /><rect
           style="fill:#82b7d3;fill-opacity:1;stroke-width:0.0424365"
           id="rect2-99-3-80"
           width="1.8877844"
           height="3.1986613"
           x="329.44333"
           y="359.2774" /><rect
           style="fill:#82b7d3;fill-opacity:1;stroke-width:0.0436399"
           id="rect2-99-3-9-4"
           width="8.4950294"
           height="0.75170791"
           x="333.2189"
           y="360.58841" /><rect
           style="fill:#bbec6c;fill-opacity:1;stroke-width:0.0244508"
           id="rect2-99-3-8-0"
           width="1.4158382"
           height="1.4158382"
           x="343.95142"
           y="360.21384" /></g></g></g><style
     type="text/css"
     id="style1">
	.st0{fill:#353535;}
	.st1{enable-background:new    ;}
	.st2{fill:#373737;}
	.st3{fill-rule:evenodd;clip-rule:evenodd;fill:#373737;}
	.st4{fill:#1A1A1A;}
	.st5{fill-rule:evenodd;clip-rule:evenodd;fill:#353535;}
	.st6{fill:#333333;}
</style></svg>
