<?xml version="1.0" encoding="UTF-8" standalone="no"?>
<svg
   id="eTzkIeF7Gnh1"
   viewBox="0 0 169.33334 169.33333"
   shape-rendering="geometricPrecision"
   text-rendering="geometricPrecision"
   project-id="fda96f1bfa734d0cae53875b5a7ad881"
   export-id="62d954c6c0b745f5859c2c65ecf6438a"
   cached="false"
   version="1.1"
   sodipodi:docname="sn-lights-bg.svg"
   inkscape:version="1.4 (e7c3feb1, 2024-10-09)"
   xmlns:inkscape="http://www.inkscape.org/namespaces/inkscape"
   xmlns:sodipodi="http://sodipodi.sourceforge.net/DTD/sodipodi-0.dtd"
   xmlns="http://www.w3.org/2000/svg"
   xmlns:svg="http://www.w3.org/2000/svg">
  <sodipodi:namedview
     id="namedview8"
     pagecolor="#3692bc"
     bordercolor="#000000"
     borderopacity="0.25"
     inkscape:showpageshadow="2"
     inkscape:pageopacity="0.0"
     inkscape:pagecheckerboard="0"
     inkscape:deskcolor="#d1d1d1"
     inkscape:zoom="5.1850395"
     inkscape:cx="99.709944"
     inkscape:cy="74.252086"
     inkscape:window-width="1200"
     inkscape:window-height="1027"
     inkscape:window-x="62"
     inkscape:window-y="25"
     inkscape:window-maximized="0"
     inkscape:current-layer="g5" />
  <style
     id="style1"><![CDATA[
#eTzkIeF7Gnh6 {animation: eTzkIeF7Gnh6_c_o 1000ms linear infinite normal forwards}@keyframes eTzkIeF7Gnh6_c_o { 0% {opacity: 0} 40% {opacity: 1} 60% {opacity: 1} 100% {opacity: 0}} #eTzkIeF7Gnh16_tr {animation: eTzkIeF7Gnh16_tr__tr 1000ms linear infinite normal forwards}@keyframes eTzkIeF7Gnh16_tr__tr { 0% {transform: translate(135.33781px,207.03926px) rotate(720deg);animation-timing-function: cubic-bezier(0.415,0.08,0.115,0.955)} 100% {transform: translate(135.33781px,207.03926px) rotate(626.493506deg)}} #eTzkIeF7Gnh16 {animation: eTzkIeF7Gnh16_f_p 1000ms linear infinite normal forwards}@keyframes eTzkIeF7Gnh16_f_p { 0% {fill: #d2dbed} 100% {fill: #d2dbed}} #eTzkIeF7Gnh17_tr {animation: eTzkIeF7Gnh17_tr__tr 1000ms linear infinite normal forwards}@keyframes eTzkIeF7Gnh17_tr__tr { 0% {transform: translate(11.12px,29.9px) rotate(-720deg);animation-timing-function: cubic-bezier(0.415,0.08,0.115,0.955)} 100% {transform: translate(11.12px,29.9px) rotate(-626.493506deg)}}
]]></style>
  <defs
     id="defs1">
    <linearGradient
       id="eTzkIeF7Gnh10-fill"
       x1="0.5"
       y1="0"
       x2="0.5"
       y2="1"
       spreadMethod="pad"
       gradientUnits="objectBoundingBox"
       gradientTransform="translate(0 0)">
      <stop
         id="eTzkIeF7Gnh10-fill-0"
         offset="0%"
         stop-color="rgba(255,255,255,0)" />
      <stop
         id="eTzkIeF7Gnh10-fill-1"
         offset="100%"
         stop-color="#010022" />
    </linearGradient>
  </defs>
  <g
     transform="matrix(1.04417 0 0 1.04417-193.845-298.654)"
     id="g5">
    <rect
       style="fill:#3692bc;fill-opacity:1;stroke-width:2.63621"
       id="rect1"
       width="170"
       height="170"
       x="0"
       y="0"
       transform="matrix(0.95769846,0,0,0.95769846,185.64506,286.02048)" />
    <path
       d="M235.89489,370.61014v18.20876v18.20881h4.39822h4.39827v-18.20881-18.20876h-4.39827-4.39822Zm51.42232,36.59045l-.0646-9.74059c-.0607-9.15452-.0846-9.83487-.40072-11.30695-1.74387-8.12197-6.45106-13.63733-13.04072-15.2801-1.79955-.44863-5.25575-.30461-7.08204.29523-2.70585.88871-6.01903,3.3202-7.80934,5.73108-2.33771,3.14802-3.89465,7.21794-4.32293,11.3008-.0739.70478-.14341,5.26824-.15445,10.14099l-.0202,8.85954h3.9563h3.95663l.0692-9.05532c.0557-7.29794.11532-9.24534.30736-10.03429c1.58302-6.5028,7.18989-9.57546,12.0045-6.57888c1.86417,1.16024,3.51254,3.54325,4.19203,6.06034.33882,1.25508.35365,1.63145.40971,10.45492l.058,9.15323h3.97059h3.97068Zm-60.89375,0l-.0646-9.74059c-.0607-9.15452-.0846-9.83487-.40072-11.30695-1.74387-8.12197-6.45106-13.63733-13.04072-15.2801-1.79955-.44863-5.25575-.30461-7.08204.29523-2.70585.88871-6.01903,3.3202-7.80934,5.73108-2.33771,3.14802-3.89465,7.21794-4.32293,11.3008-.0739.70478-.14341,5.26824-.15445,10.14099l-.0202,8.85954h3.9563h3.95663l.0692-9.05532c.0557-7.29794.11532-9.24534.30736-10.03429c1.58302-6.5028,7.18989-9.57546,12.0045-6.57888c1.86417,1.16024,3.51254,3.54325,4.19203,6.06034.33882,1.25508.35365,1.63145.40971,10.45492l.058,9.15323h3.97059h3.97068Zm74.67494-36.59045l-.0607,9.896c-.0592,9.64695-.0704,9.92533-.44786,11.05236-.78585,2.34638-2.69072,4.55427-4.83945,5.60944-1.10146.54101-2.17214.80325-4.0417.98842l-1.01131.10017v4.38556v4.38562h.752c2.6287,0,5.64084-.71363,8.13228-1.92633c4.81117-2.34173,8.27425-6.58082,9.71194-11.8884.47544-1.75492.47549-1.75494.53886-12.17891l.0634-10.42393h-4.39859-4.39887Zm26.87925.003c-6.5364-.003-6.53641-.003-6.70963.48063-.44474,1.24243-12.86665,35.35539-12.97279,35.62582v.00034c-.1133.28869.17473.30756,4.60413.30487l4.72493-.003l4.82333-13.32365c2.65294-7.32792,4.93366-13.54615,5.06843-13.81831.14306-.28927.35971-.47193.52203-.43977.19372.0393,1.56623,3.60001,4.56296,11.84237c2.35725,6.4828,4.61154,12.67773,5.00954,13.76631l.72393,1.97936h4.64306c2.55363,0,4.64423-.0594,4.64625-.13204.002-.0725-2.94708-8.2649-6.5533-18.20529l-6.5568-18.07357-6.53607-.00407Z"
       transform="matrix(.918246 0 0 0.820123 20.8007 66.5464)"
       fill="#3692bc"
       stroke-width="0.66499"
       id="path1"
       style="fill:#ffffff" />
    <path
       d="M32.29935,179.67488c-.190805-.36633-1.893149-3.7351-3.782988-7.48616s-3.69322-7.32367-4.007513-7.93906c-3.851107-7.54076-8.273679-16.46516-8.189414-16.52558.0549-.0394.96996-.44253,2.033471-.89594c17.47118-7.44835,33.805458-18.13063,46.526161-30.42711C76.704918,104.96955,86.176474,91.92258,93.71293,76.682745c.441317-.892409.802394-1.651642.802394-1.687187s-20.768071-.05637-46.151268-.04629-47.918199.01405-50.077778.0088l-3.926507-.0097v-16.837045-16.837215h65.271762h65.271767l-.0207,16.757282-.0207,16.757284-.29883,1.16596c-.97539,3.805715-4.30928,11.570416-9.30662,21.675309-6.42088,12.983377-12.15435,22.314267-19.557264,31.828357-4.776685,6.13889-8.537596,10.43002-13.772375,15.71398-11.686632,11.79641-24.312553,21.41094-39.186156,29.83986-3.335406,1.89017-9.817343,5.32877-10.045031,5.32877-.02715,0-.205479-.29971-.396284-.66603ZM9.714423,-15.788922v33.520467l30.514496.237679l38.218624-.173067l38.218587-.172605v-16.706607-16.706744h-53.475852l-53.475855.000877Zm0,33.520467h-.00344v.0092h.00344.00127l-.00127-.0092ZM607.81705,136.56123h6.08551v8.4618h-6.08551v-8.4618Zm-43.6241,2.06837h34.52948v4.15078h-34.52948v-4.15078Zm-15.3464-7.23884h7.6732v17.66232h-7.6732v-17.66232Zm-11.50997,0h7.6732v17.66232h-7.6732v-17.66232Zm-11.5096-.00069h7.67325v17.66232h-7.67325v-17.66232Zm81.99007-57.587488h6.08551v8.461859h-6.08551v-8.461859Zm-43.6241,2.068256h34.52948v4.150729h-34.52948v-4.150729Zm-15.3464-7.238723h7.6732v17.662323h-7.6732v-17.662323Zm-11.50997,0h7.6732v17.662323h-7.6732v-17.662323Zm-11.5096-.00086h7.67325v17.662323h-7.67325v-17.662323Zm81.99007-58.99774h6.08551v8.461801h-6.08551v-8.461801Zm-43.6241,2.068428h34.52948v4.150728h-34.52948v-4.150728Zm-15.3464-7.238895h7.6732v17.662323h-7.6732v-17.662323Zm-11.50997,0h7.6732v17.662323h-7.6732v-17.662323Zm-11.5096-.000688h7.67325v17.662323h-7.67325v-17.662323ZM242.38555,-6.820348l-28.90223.328486c-27.16327.308421-29.18196.430528-33.54991,2.038503-24.09953,8.871004-40.46467,32.81646-45.33906,66.338047-1.33118,9.154316-.90385,26.735979.87597,36.026275c2.63699,13.764697,9.85169,30.618757,17.00521,39.726067c9.34083,11.89193,21.41711,19.8121,33.53173,21.99077c2.09125.37549,15.63194.72949,30.09037.78573l26.28792.10261v-20.12568-20.1274l-26.86886-.35199c-21.65442-.28319-27.43278-.58663-29.77371-1.56354-19.2951-8.05283-28.41231-36.575015-19.52086-61.066858c3.44266-9.483031,10.51352-17.8683,17.98219-21.324909c3.72409-1.723547,4.84088-1.798989,31.02185-2.084136l27.15939-.295235v-20.19837-20.19837Zm160.34225.120388v83.608022v83.608138h48.50939h48.50942v-20.18891-20.1888l-33.84036-.20867-33.8404-.20867-.14883-63.2109-.14883-63.210956h-14.5204l-14.51999.000746Zm115.6092,0v40.507152l29.33805.286636l36.74508-.208671l36.74508-.208672v-20.188853-20.188854h-51.4141L518.337,-6.69996Zm0,40.507152h-.004v.01147h.004.001l-.001-.01147ZM319.85397,-6.684081c-21.58359-.017198-21.58363-.017198-22.1555,2.207275-1.46846,5.703496-42.48766,162.338056-42.83834,163.581036v.002c-.37394,1.3253.57686,1.41169,15.20342,1.39942l15.60284-.0172l15.9285-61.177208c8.7603-33.647592,16.29073-62.199816,16.73513-63.449208.47243-1.328045,1.18926-2.167031,1.72477-2.019527.6406.176568,5.17165,16.529019,15.06733,54.375552c7.78324,29.767731,15.22738,58.212641,16.54231,63.210901l2.39073,9.08781h15.33164c8.4325,0,15.33638-.2723,15.34298-.60583.008-.33307-9.7318-37.9507-21.6404-83.593865L341.4376,-6.669864l-21.58363-.014217ZM518.33816,56.283864c-.00042.000172-.0007.0013-.001.0015v20.622764v20.588138c.002.0016.002.0025.004.0025.00062.000746.002.0012.002.0017.002.0017.008.0025.0124.0052h65.90498h36.90624v-20.59921-20.599087h-36.90653l-65.92081-.0172-.00128-.006305Zm-.004,41.39693c-.00033.0026-.00079.0052-.001.01147.00074,0,.002-.000057.002,0v-.01147h-.001Zm.0124,22.045916c-.002.002-.004.003-.008.005v40.78633h51.41406h51.41411v-20.19045-20.1888l-36.74508-.20867-66.07509-.20341Z"
       transform="matrix(.242553 0 0 0.174437 192.08 335.354)"
       fill="#3692bc"
       stroke-width="1.12346"
       id="path2"
       style="fill:#ffffff" />
    <g
       id="eTzkIeF7Gnh6"
       opacity="0">
      <path
         d="M607.3,204.2v-2.8h2.8h2.8v2.8v2.8h-2.8-2.8v-2.8Z"
         transform="matrix(.25339 0 0 0.25339 185.645 286.02)"
         fill="#bbec6c"
         stroke="#bbec6c"
         stroke-width="0.4"
         id="path3" />
      <path
         d="M607.3,248.4v-2.8h2.8h2.8v2.8v2.8h-2.8-2.8v-2.8Z"
         transform="matrix(.25339 0 0 0.25339 185.645 286.02)"
         fill="#bbec6c"
         stroke="#bbec6c"
         stroke-width="0.4"
         id="path4" />
      <path
         d="M607.3,291.6v-2.8h2.8h2.8v2.8v2.8h-2.8-2.8v-2.8Z"
         transform="matrix(.25339 0 0 0.25339 185.645 286.02)"
         fill="#bbec6c"
         stroke="#bbec6c"
         stroke-width="0.4"
         id="path5" />
    </g>
  </g>
</svg>
