<?xml version="1.0" encoding="UTF-8" standalone="no"?>
<!-- Created with Inkscape (http://www.inkscape.org/) -->

<svg
   width="640"
   height="640"
   viewBox="0 0 169.33334 169.33333"
   version="1.1"
   id="svg1"
   xml:space="preserve"
   sodipodi:docname="sn-block-server-bg-on.svg"
   inkscape:version="1.4 (e7c3feb1, 2024-10-09)"
   inkscape:export-filename="/Volumes/MiniExternal/Documents/Drive/sn-newsq2.png"
   inkscape:export-xdpi="162"
   inkscape:export-ydpi="162"
   xmlns:inkscape="http://www.inkscape.org/namespaces/inkscape"
   xmlns:sodipodi="http://sodipodi.sourceforge.net/DTD/sodipodi-0.dtd"
   xmlns="http://www.w3.org/2000/svg"
   xmlns:svg="http://www.w3.org/2000/svg"><sodipodi:namedview
     id="namedview1"
     pagecolor="#ffffff"
     bordercolor="#000000"
     borderopacity="0.25"
     inkscape:showpageshadow="2"
     inkscape:pageopacity="0.0"
     inkscape:pagecheckerboard="0"
     inkscape:deskcolor="#d1d1d1"
     inkscape:document-units="mm"
     inkscape:zoom="0.5"
     inkscape:cx="318"
     inkscape:cy="-48"
     inkscape:window-width="1824"
     inkscape:window-height="1027"
     inkscape:window-x="62"
     inkscape:window-y="25"
     inkscape:window-maximized="0"
     inkscape:current-layer="g1"
     inkscape:export-bgcolor="#00000000" /><defs
     id="defs1" /><rect
     style="fill:#3692bc;fill-opacity:1;stroke-width:0.434186"
     id="rect3"
     width="169.33333"
     height="169.33333"
     x="0"
     y="1.4210855e-14" /><path
     id="path28"
     style="fill:#ffffff;fill-opacity:1;stroke-width:0.687156"
     d="m 67.528363,84.778584 v 18.815716 18.81577 h 4.543776 4.54334 l 0.04766,-14.22551 0.04725,-14.225436 h 7.81715 7.817129 l 0.04735,14.225436 0.04735,14.22551 H 96.983185 101.527 V 103.5943 84.778584 H 84.528902 Z m 48.437027,0 -0.0627,10.225863 c -0.0612,9.968523 -0.0727,10.256173 -0.46278,11.420773 -0.81205,2.4246 -2.78042,4.70608 -5.00077,5.79642 -1.13818,0.55905 -2.24455,0.83003 -4.17642,1.02137 l -1.04503,0.1035 v 4.53175 4.53181 h 0.77707 c 2.71633,0 5.82887,-0.73742 8.40336,-1.99054 4.97154,-2.41979 8.55005,-6.80019 10.03567,-12.28468 0.49129,-1.81341 0.49134,-1.81343 0.55682,-12.584876 l 0.0655,-10.77139 h -4.54521 z m 27.77522,0.0031 c -6.75429,-0.0031 -6.7543,-0.0031 -6.93329,0.496656 -0.45956,1.28384 -13.29553,36.5339 -13.40521,36.81334 v 3.5e-4 c -0.11708,0.29831 0.18056,0.31781 4.7576,0.31503 l 4.88243,-0.003 4.9841,-13.76778 c 2.74138,-7.57218 5.09812,-13.997685 5.23738,-14.278919 0.14783,-0.29891 0.3717,-0.487652 0.53944,-0.454425 0.20017,0.04061 1.61843,3.720008 4.71505,12.237114 2.43582,6.69889 4.76525,13.10032 5.17653,14.22518 l 0.74806,2.04534 h 4.79782 c 2.63875,0 4.79903,-0.0613 4.80113,-0.13644 0.002,-0.0749 -3.04531,-8.54039 -6.77175,-18.81214 l -6.77536,-18.676009 z"
     sodipodi:nodetypes="cccccccccccccccccccssscccssssccccccccccsssccssccc" /><path
     id="path31"
     style="fill:#ffffff;fill-opacity:1;stroke-width:0.576743"
     d="m 64.346516,46.923845 -7.591667,0.06206 c -7.134901,0.05823 -7.665136,0.08133 -8.812461,0.38507 -6.330146,1.675758 -10.628732,6.199102 -11.90908,12.531402 -0.349657,1.729261 -0.237408,5.050482 0.230093,6.805437 0.692651,2.600181 2.587706,5.783955 4.466712,7.504347 2.453523,2.2464 5.625558,3.742532 8.807684,4.154095 0.5493,0.07097 4.10599,0.137799 7.903735,0.148419 l 6.904984,0.01937 v -3.801786 -3.802107 l -7.057578,-0.06641 c -5.687899,-0.05356 -7.205675,-0.110809 -7.820579,-0.295355 -5.068177,-1.521185 -7.462965,-6.909077 -5.127483,-11.535646 0.904282,-1.791363 2.761571,-3.375366 4.723339,-4.028314 0.978195,-0.325579 1.271541,-0.339835 8.148416,-0.393701 l 7.133885,-0.05574 v -3.815514 z m -33.418633,0.02269 -8.202054,9.74e-4 c -4.995838,4.77e-4 -8.588326,0.06362 -9.190082,0.161235 -4.5174794,0.732934 -7.9003985,4.509761 -8.1925319,9.145965 -0.1068925,1.696407 0.2123759,3.201564 1.0356978,4.883082 0.850861,1.737757 2.5991962,3.511445 4.2616821,4.32338 1.944413,0.94961 2.518682,1.042039 7.011389,1.128365 4.433785,0.08517 4.66192,0.129397 5.194538,1.002917 0.609962,1.000367 0.232393,2.396787 -0.800528,2.960716 -0.463014,0.252793 -1.144279,0.277959 -8.628557,0.318905 l -8.1257773,0.04435 v 3.817596 3.817897 l 8.7361433,-0.05242 c 8.641705,-0.0516 8.747717,-0.05585 9.804343,-0.403844 3.377366,-1.112358 5.870654,-3.717501 6.710968,-7.01169 0.314564,-1.233175 0.318854,-3.541719 0.0083,-4.74004 -0.720315,-2.779796 -2.565057,-5.109062 -5.018394,-6.336621 -1.888517,-0.944927 -2.477239,-1.039915 -6.888904,-1.110793 -2.308596,-0.03709 -4.144148,-0.13236 -4.390124,-0.228 -0.572166,-0.222488 -1.146144,-0.936224 -1.265781,-1.573953 -0.131147,-0.699054 0.372171,-1.738451 1.036589,-2.140233 0.47839,-0.289294 0.840718,-0.303716 8.70129,-0.345129 l 8.202054,-0.0432 v -3.809857 z m 75.535267,0 v 15.793732 15.793742 h 12.74181 12.74183 v -3.813711 -3.813722 l -8.88875,-0.03937 -8.88875,-0.03937 -0.0391,-11.940681 -0.0391,-11.94068 h -3.81402 z m 30.36672,0 v 7.651885 l 7.70613,0.05419 9.65173,-0.03937 9.65173,-0.03937 v -3.813721 -3.813722 h -13.50479 z m 0,7.651885 h -9.7e-4 v 0.0021 h 9.7e-4 3.1e-4 z M 84.694913,46.949529 c -5.669291,-0.0031 -5.669312,-0.0031 -5.819523,0.41695 C 78.489667,48.4439 67.715293,78.032483 67.623175,78.26728 v 3.01e-4 c -0.09822,0.250348 0.151527,0.266676 3.99344,0.264356 l 4.098354,-0.0031 4.183893,-11.556511 c 2.301033,-6.356089 4.279036,-11.749659 4.395771,-11.985678 0.124092,-0.250866 0.312368,-0.409356 0.453037,-0.381495 0.16826,0.03336 1.358417,3.122375 3.957675,10.271657 2.044416,5.623186 3.99974,10.996489 4.345128,11.94067 l 0.627968,1.716714 h 4.027113 c 2.214945,0 4.028366,-0.05149 4.030096,-0.114446 0.002,-0.06289 -2.556218,-7.168967 -5.68422,-15.791058 L 90.364225,46.952368 Z m 52.135267,11.894772 c -1.2e-4,3.1e-5 -1.9e-4,2.59e-4 -3.1e-4,2.9e-4 v 3.895686 3.889138 c 4.2e-4,3.01e-4 4.8e-4,4.66e-4 9.8e-4,4.66e-4 1.7e-4,1.45e-4 4.8e-4,2.28e-4 4.8e-4,3.11e-4 4.6e-4,3.32e-4 0.002,4.77e-4 0.003,9.74e-4 h 17.31107 9.69405 v -3.8912 -3.89122 h -9.69414 l -17.31522,-0.0031 z m -9.8e-4,7.819978 c -8e-5,4.77e-4 -2e-4,9.85e-4 -3e-4,0.0021 2e-4,0 4.8e-4,-1e-5 4.8e-4,0 v -0.0021 z m 0.003,4.164508 c -4.6e-4,3.52e-4 -9.7e-4,4.87e-4 -0.002,9.84e-4 v 7.704632 h 13.50478 13.5048 V 74.72038 70.906659 l -9.65173,-0.03937 z" /><path
     d="m 5.2916597,84.778584 v 18.815716 18.81577 h 4.543817 4.5434023 l 0.04683,-14.22551 0.04631,-14.225436 h 7.817461 7.817056 l 0.04725,14.225436 0.04725,14.22551 h 4.543744 4.543827 V 103.5943 84.778584 H 22.290644 Z"
     style="fill:#ffffff;fill-opacity:1;stroke-width:0.687156"
     id="path1-8"
     sodipodi:nodetypes="ccccccccccccccccc" /><path
     d="m 49.09392,84.778584 v 18.815716 18.81577 h 4.544832 4.544874 V 103.5943 84.778584 h -4.544874 z"
     style="fill:#ffffff;fill-opacity:1;stroke-width:0.687156"
     id="path1-3" /><g
     id="g2"><g
       id="g1"
       style="fill:#3692bc;fill-opacity:1"
       transform="matrix(1.0367893,0,0,1.0367893,-197.80452,-305.99043)"><rect
         style="fill:#3692bc;fill-opacity:1;stroke-width:0.042295"
         id="rect2"
         width="1.8814917"
         height="3.187999"
         x="325.24213"
         y="342.6235" /><rect
         style="fill:#3692bc;fill-opacity:1;stroke-width:0.042295"
         id="rect2-99"
         width="1.8814917"
         height="3.187999"
         x="328.06433"
         y="342.62366" /><rect
         style="fill:#3692bc;fill-opacity:1;stroke-width:0.042295"
         id="rect2-99-3"
         width="1.8814917"
         height="3.187999"
         x="330.8866"
         y="342.62366" /><rect
         style="fill:#3692bc;fill-opacity:1;stroke-width:0.0434944"
         id="rect2-99-3-9"
         width="8.466713"
         height="0.74920219"
         x="334.64957"
         y="343.93027" /><rect
         style="fill:#55d400;fill-opacity:1;stroke-width:0.0243693"
         id="rect2-99-3-8"
         width="1.4111187"
         height="1.4111187"
         x="345.34631"
         y="343.55692" /><rect
         style="fill:#3692bc;fill-opacity:1;stroke-width:0.042295"
         id="rect2-6"
         width="1.8814917"
         height="3.187999"
         x="325.24213"
         y="354.0961" /><rect
         style="fill:#3692bc;fill-opacity:1;stroke-width:0.042295"
         id="rect2-99-7"
         width="1.8814917"
         height="3.187999"
         x="328.06433"
         y="354.09625" /><rect
         style="fill:#3692bc;fill-opacity:1;stroke-width:0.042295"
         id="rect2-99-3-1"
         width="1.8814917"
         height="3.187999"
         x="330.8866"
         y="354.09625" /><rect
         style="fill:#3692bc;fill-opacity:1;stroke-width:0.0434944"
         id="rect2-99-3-9-8"
         width="8.466713"
         height="0.74920219"
         x="334.64957"
         y="355.40283" /><rect
         style="fill:#55d400;fill-opacity:1;stroke-width:0.0243693"
         id="rect2-99-3-8-4"
         width="1.4111187"
         height="1.4111187"
         x="345.34631"
         y="355.02951" /><rect
         style="fill:#3692bc;fill-opacity:1;stroke-width:0.042295"
         id="rect2-3"
         width="1.8814917"
         height="3.187999"
         x="325.24213"
         y="365.60797" /><rect
         style="fill:#3692bc;fill-opacity:1;stroke-width:0.042295"
         id="rect2-99-74"
         width="1.8814917"
         height="3.187999"
         x="328.06433"
         y="365.60809" /><rect
         style="fill:#3692bc;fill-opacity:1;stroke-width:0.042295"
         id="rect2-99-3-80"
         width="1.8814917"
         height="3.187999"
         x="330.8866"
         y="365.60809" /><rect
         style="fill:#3692bc;fill-opacity:1;stroke-width:0.0434944"
         id="rect2-99-3-9-4"
         width="8.466713"
         height="0.74920219"
         x="334.64957"
         y="366.9147" /><rect
         style="fill:#55d400;fill-opacity:1;stroke-width:0.0243693"
         id="rect2-99-3-8-0"
         width="1.4111187"
         height="1.4111187"
         x="345.34631"
         y="366.54138" /></g></g><style
     type="text/css"
     id="style1">
	.st0{fill:#353535;}
	.st1{enable-background:new    ;}
	.st2{fill:#373737;}
	.st3{fill-rule:evenodd;clip-rule:evenodd;fill:#373737;}
	.st4{fill:#1A1A1A;}
	.st5{fill-rule:evenodd;clip-rule:evenodd;fill:#353535;}
	.st6{fill:#333333;}
</style></svg>
